<svg width="463" height="538" viewBox="0 0 463 538" fill="none" xmlns="http://www.w3.org/2000/svg">
<path d="M237.446 0.92334C238.978 2.2313 240.356 3.77007 242.057 4.80105C254.71 12.4641 267.439 20.0195 280.138 27.6057C281.087 28.175 282.022 28.7444 283.523 29.6522C256.042 47.8098 228.99 65.6903 201.939 83.5709C202.061 83.8478 202.184 84.1248 202.306 84.4018C203.639 83.9709 205.048 83.6632 206.32 83.0785C235.792 69.5219 265.233 55.9191 294.69 42.3471C296.589 41.47 298.519 40.7006 300.649 39.7774C305.995 42.9011 311.233 45.9478 317.269 49.4716C297.585 58.3504 278.682 66.8598 259.795 75.3846C259.918 75.7385 260.04 76.077 260.147 76.4309C283.86 70.3682 307.557 64.3054 331.836 58.0888C374.911 83.2785 418.322 108.684 462.209 134.35C461.795 161.217 461.366 188.177 460.937 215.828C451.762 212.751 442.877 209.766 433.993 206.78C433.809 207.181 433.625 207.596 433.441 207.996C442.525 213.505 451.624 218.998 460.815 224.569C460.815 227.908 460.815 231.139 460.815 234.94C442.157 225.107 423.868 215.474 405.731 205.919C405.287 206.242 405.072 206.334 404.996 206.488C404.95 206.596 405.042 206.857 405.149 206.95C423.622 222.922 442.111 238.895 460.983 255.206C460.156 304.508 459.528 354.056 460.432 404.467C385.695 448.953 309.855 492.715 233.954 537.047C155.908 492.592 77.4176 448.86 0.168333 403.251C0.168333 396.834 0.168333 391.064 0.168333 384.647C37.5139 354.887 75.1965 324.85 112.956 294.767C112.45 294.352 112.312 294.183 112.144 294.121C111.991 294.075 111.761 294.09 111.608 294.167C111.255 294.321 110.918 294.491 110.597 294.691C74.017 317.757 37.4526 340.823 0.382788 364.197C-0.321846 357.626 0.19897 351.425 0.0151522 344.793C21.0776 333.16 42.14 321.542 63.1871 309.909C63.0186 309.509 62.8501 309.124 62.6816 308.724C41.9408 315.125 21.4758 322.404 0.214288 329.128C-0.29121 264.269 2.00651 200.071 0.398105 135.489C5.10077 132.873 9.95661 130.196 14.7818 127.487C68.9007 97.1121 123.066 66.8444 177.108 36.3767C195.337 26.0977 213.289 15.2801 231.334 4.64717C233.111 3.60081 234.658 2.16975 236.312 0.92334C236.68 0.92334 237.063 0.92334 237.446 0.92334ZM334.839 128.657C308.4 140.182 282.037 151.677 255.644 163.187C247.663 160.063 239.82 157.001 232.269 154.047C224.395 157.124 216.721 160.125 208.878 163.187C182.5 151.692 156.137 140.198 129.714 128.672C112.757 138.69 95.8147 148.399 78.9341 158.617C91.2958 190.177 103.412 221.122 115.652 252.374C131.215 250.866 146.456 249.389 161.698 247.912C161.729 248.081 161.759 248.25 161.775 248.42C157.792 250.189 153.794 251.974 149.704 253.79C152.859 264.731 155.892 275.225 158.895 285.658C143.791 303.077 128.917 320.234 114.15 337.268C117.229 352.687 120.247 367.736 123.234 382.662C178.257 367.244 232.667 351.994 287.261 336.684C293.449 341.008 299.576 345.301 306.041 349.825C317.07 341.5 328.604 334.006 339.802 325.127C328.114 311.632 316.809 298.584 305.596 285.658C308.721 274.825 311.724 264.377 314.772 253.79C310.391 251.836 306.531 250.097 302.671 248.373C302.732 248.22 302.793 248.066 302.839 247.912C318.065 249.389 333.276 250.882 348.855 252.39C361.14 221.014 373.302 189.946 385.588 158.54C368.37 148.384 351.673 138.567 334.839 128.657ZM130.342 402.389C144.143 430.056 184.522 463.14 240.157 459.57C284.243 456.739 321.282 428.441 334.134 400.05C297.646 386.355 260.01 380.462 221.27 382.093C189.837 383.416 159.339 389.525 130.342 402.389ZM394.671 295.214C390.336 303.954 385.894 312.863 381.482 321.742C387.211 330.821 392.756 339.592 398.118 348.101C405.379 349.363 412.119 350.548 419.487 351.825C420.268 345.039 421.018 338.623 421.8 331.837C415.167 328.267 408.687 324.789 401.09 320.696C406.145 319.034 409.744 318.68 413.359 320.542C417.112 322.481 420.881 324.404 424.572 326.466C425.69 327.097 426.594 328.128 427.85 329.205C426.885 338.392 425.92 347.532 424.894 357.196C416.254 359.919 407.722 362.612 399.159 365.32C401.534 368.336 401.534 368.413 404.674 368.459C410.051 368.521 415.443 368.506 420.819 368.475C423.653 368.444 426.502 368.29 429.367 368.182C435.157 357.088 440.779 346.347 446.477 335.437C440.365 323.481 434.345 311.679 428.203 299.661C417.128 298.214 406.16 296.753 394.671 295.214ZM293.449 385.94C304.815 388.048 314.91 389.971 325.02 391.772C326.261 391.987 327.624 391.849 328.865 391.587C351.735 386.848 374.589 382.077 397.444 377.277C398.424 377.076 399.313 376.492 400.645 375.922C388.912 365.813 378.204 355.395 366.44 346.332C341.609 358.519 317.836 371.629 293.449 385.94ZM384.592 301.8C384.301 301.507 384.025 301.215 383.734 300.907C347.461 327.097 311.187 353.287 274.929 379.508C274.378 379.908 274.102 380.693 273.643 381.37C278.973 382.955 283.508 381.908 288.164 379.415C312.382 366.444 336.723 353.733 360.971 340.823C363.667 339.392 366.256 338.638 369.488 339.715C374.804 344.531 380.333 349.548 385.925 354.61C388.559 353.887 390.842 353.256 393.522 352.502C392.511 350.733 391.899 349.548 391.209 348.425C386.721 341.238 382.355 333.96 377.637 326.928C375.309 323.45 375.141 320.357 377.101 316.726C379.767 311.863 382.11 306.785 384.592 301.8ZM392.864 361.012C397.643 359.319 401.993 357.765 407.324 355.872C403.678 355.103 401.12 354.564 398.822 354.072C396.188 355.903 393.905 357.488 391.592 359.104C392.082 359.827 392.389 360.288 392.864 361.012Z" fill="white"/>
<path d="M252.764 218.798C256.808 218.998 260.193 219.168 264.482 219.368C279.953 209.073 296.037 198.348 312.474 187.407C318.463 190.562 324.514 193.747 330.564 196.948C330.488 197.148 330.427 197.332 330.35 197.532C325.831 197.025 321.312 196.517 316.441 195.978C306.76 206.211 297.018 216.521 287.092 227.015C275.48 226 263.931 224.907 252.764 218.798Z" fill="white"/>
<path d="M177.245 226.831C167.58 216.583 157.96 206.411 148.141 196.009C143.515 196.502 138.858 196.994 134.201 197.471C134.14 197.286 134.079 197.102 134.018 196.917C139.915 193.793 145.813 190.654 152.016 187.377C168.116 198.086 184.2 208.812 200.054 219.368C203.884 219.152 207.299 218.968 211.083 218.768C201.448 224.507 193.237 225.6 177.245 226.831Z" fill="white"/>
<path d="M166.141 262.807C179.958 260.299 193.453 257.868 207.27 255.359C211.329 264.361 215.174 272.886 219.494 282.457C215.005 280.688 213.121 277.118 209.399 275.133C199.059 277.441 188.245 279.872 177.016 282.38C173.478 276.01 169.955 269.655 166.141 262.807Z" fill="white"/>
<path d="M287.537 282.396C276.232 279.857 265.617 277.472 254.848 275.04C251.999 277.472 249.241 279.811 246.377 282.242C246.423 278.487 251.447 266.439 257.452 255.652C270.84 257.36 284.213 260.422 298.351 262.746C294.614 269.547 291.167 275.825 287.537 282.396Z" fill="white"/>
</svg>
