<svg width="145" height="149" viewBox="0 0 145 149" fill="none" xmlns="http://www.w3.org/2000/svg">
<path d="M12.0905 46.4732L68.2194 6.26654L130.553 34.6141L137.047 102.596L81.1998 142.236L19.4898 115.816L12.0905 46.4732Z" fill="#0C0C0C" stroke="#0C0C0C"/>
<path d="M12.9754 48.0986L66.331 10.0881L125.918 37.3102L132.149 102.543L78.7932 140.554L19.2066 113.331L12.9754 48.0986Z" fill="white" stroke="#0C0C0C"/>
<path d="M79.23 75.6369L79.5329 70.3364L74.5201 70.8153L74.1963 67.4253C74.0598 65.9964 74.6267 64.5358 76.872 64.3214L79.1506 64.1037L78.7258 59.6565C78.7258 59.6565 76.6246 59.5013 74.6472 59.6902C70.5193 60.0845 68.0603 62.8445 68.4929 67.3738L68.8733 71.3556L64.2844 71.7939L64.7834 77.0178L69.3723 76.5795L70.5786 89.2084L76.2256 88.669L75.0192 76.04L79.23 75.6369Z" fill="#0C0C0C"/>
</svg>
