<svg width="800" height="103" viewBox="0 0 800 103" fill="none" xmlns="http://www.w3.org/2000/svg">
<path d="M-187.469 51.2613H-145.318V101H-162.178V90.0406H-164.708C-165.832 93.6937 -167.986 96.7848 -171.171 99.3139C-174.356 101.749 -179.133 102.967 -185.502 102.967C-189.998 102.967 -194.214 102.124 -198.148 100.438C-202.082 98.7519 -205.501 96.2696 -208.405 92.9912C-211.308 89.6191 -213.603 85.4976 -215.289 80.6268C-216.975 75.6623 -217.818 69.9016 -217.818 63.3447V40.3019C-217.818 33.9324 -216.928 28.3122 -215.149 23.4413C-213.275 18.4768 -210.746 14.3085 -207.562 10.9364C-204.283 7.5643 -200.396 5.03521 -195.9 3.34916C-191.403 1.56943 -186.439 0.679565 -181.006 0.679565C-175.386 0.679565 -170.375 1.61627 -165.972 3.48967C-161.57 5.26939 -157.823 7.79848 -154.732 11.0769C-151.641 14.2617 -149.299 18.0553 -147.706 22.4578C-146.114 26.7666 -145.318 31.4033 -145.318 36.3678V38.0538H-163.865V36.3678C-163.865 30.4666 -165.41 26.0173 -168.501 23.0198C-171.499 19.9287 -175.761 18.3832 -181.287 18.3832C-186.533 18.3832 -190.841 20.1629 -194.214 23.7224C-197.586 27.1881 -199.272 33.183 -199.272 41.707V62.5017C-199.272 77.6762 -193.09 85.2634 -180.725 85.2634C-175.199 85.2634 -171.03 83.8115 -168.22 80.9078C-165.316 77.9103 -163.865 73.9294 -163.865 68.9649H-187.469V51.2613Z" fill="#0C0C0C"/>
<path d="M-131.225 40.8639C-131.225 28.1248 -128.04 18.2427 -121.67 11.2174C-115.207 4.19219 -106.308 0.679565 -94.9744 0.679565C-83.6404 0.679565 -74.7885 4.19219 -68.419 11.2174C-61.9558 18.2427 -58.7242 28.1248 -58.7242 40.8639V62.7827C-58.7242 75.8964 -61.9558 85.8723 -68.419 92.7102C-74.7885 99.5481 -83.6404 102.967 -94.9744 102.967C-106.308 102.967 -115.207 99.5481 -121.67 92.7102C-128.04 85.8723 -131.225 75.8964 -131.225 62.7827V40.8639ZM-94.9744 86.1065C-91.6023 86.1065 -88.7922 85.5913 -86.5441 84.5609C-84.296 83.4369 -82.4695 81.8913 -81.0644 79.9242C-79.6594 77.9572 -78.6759 75.6154 -78.1138 72.899C-77.5518 70.1826 -77.2708 67.1852 -77.2708 63.9067V39.7399C-77.2708 36.6488 -77.5986 33.745 -78.2543 31.0286C-78.91 28.3122 -79.9404 25.9704 -81.3454 24.0034C-82.7505 22.0363 -84.577 20.4907 -86.8251 19.3667C-89.0732 18.149 -91.7896 17.5401 -94.9744 17.5401C-98.1592 17.5401 -100.876 18.149 -103.124 19.3667C-105.372 20.4907 -107.198 22.0363 -108.603 24.0034C-110.008 25.9704 -111.039 28.3122 -111.694 31.0286C-112.35 33.745 -112.678 36.6488 -112.678 39.7399V63.9067C-112.678 67.1852 -112.397 70.1826 -111.835 72.899C-111.273 75.6154 -110.289 77.9572 -108.884 79.9242C-107.479 81.8913 -105.653 83.4369 -103.405 84.5609C-101.157 85.5913 -98.3465 86.1065 -94.9744 86.1065Z" fill="#0C0C0C"/>
<path d="M24.3569 101H5.81032V71.494C5.81032 69.2459 5.20148 67.4193 3.98376 66.0143C2.85973 64.6092 0.939499 63.9067 -1.77693 63.9067H-23.1337V101H-41.6803V2.64663H-4.02501C1.03316 2.64663 5.48247 3.34916 9.32294 4.7542C13.1634 6.15926 16.3482 8.12632 18.8773 10.6554C21.5 13.0908 23.4671 15.9478 24.7785 19.2262C26.1835 22.5046 26.886 26.0173 26.886 29.7641V33.1362C26.886 37.164 25.8088 40.9576 23.6544 44.5171C21.5 47.9828 18.1747 50.6524 13.6786 52.5258V55.0549C16.957 55.4296 19.5329 56.6941 21.4063 58.8485C23.3734 61.0029 24.3569 63.7194 24.3569 66.9978V101ZM-23.1337 46.2031H-5.43005C-0.933899 46.2031 2.48503 45.1727 4.82678 43.112C7.16853 40.9576 8.3394 37.9602 8.3394 34.1197V32.4336C8.3394 29.1552 7.16853 26.3451 4.82678 24.0034C2.48503 21.5679 -0.933899 20.3502 -5.43005 20.3502H-23.1337V46.2031Z" fill="#0C0C0C"/>
<path d="M44.2109 2.64663H109.967V20.3502H86.3623V83.2964H109.967V101H44.2109V83.2964H67.8157V20.3502H44.2109V2.64663Z" fill="#0C0C0C"/>
<path d="M131.648 2.64663H150.194V83.2964H194.875V101H131.648V2.64663Z" fill="#0C0C0C"/>
<path d="M217.679 2.64663H236.226V83.2964H280.907V101H217.679V2.64663Z" fill="#0C0C0C"/>
<path d="M351.904 79.9242H318.464L313.687 101H294.297L317.762 2.64663H352.607L376.071 101H356.681L351.904 79.9242ZM322.398 62.2206H347.83L336.449 11.92H333.92L322.398 62.2206Z" fill="#0C0C0C"/>
<path d="M507.529 86.1065C511.088 86.1065 513.992 85.5913 516.24 84.5609C518.582 83.4369 520.361 81.985 521.579 80.2053C522.891 78.3319 523.78 76.2243 524.249 73.8825C524.717 71.4471 524.951 68.9649 524.951 66.4358V63.9067H543.498V66.4358C543.498 78.1445 540.407 87.1837 534.225 93.5532C528.136 99.8291 519.237 102.967 507.529 102.967C496.288 102.967 487.39 99.5481 480.833 92.7102C474.276 85.8723 470.997 75.8964 470.997 62.7827V40.8639C470.997 34.5881 471.84 28.9679 473.526 24.0034C475.213 18.9452 477.648 14.73 480.833 11.3579C484.018 7.89215 487.858 5.26939 492.354 3.48967C496.85 1.61627 501.908 0.679565 507.529 0.679565C513.336 0.679565 518.488 1.52259 522.984 3.20865C527.48 4.89471 531.227 7.33013 534.225 10.5149C537.316 13.6997 539.611 17.5401 541.109 22.0363C542.702 26.5324 543.498 31.5906 543.498 37.2108V39.7399H524.951V37.2108C524.951 34.8691 524.67 32.5273 524.108 30.1856C523.546 27.8438 522.609 25.7362 521.298 23.8629C519.987 21.9895 518.207 20.4907 515.959 19.3667C513.711 18.149 510.901 17.5401 507.529 17.5401C504.438 17.5401 501.768 18.149 499.52 19.3667C497.272 20.4907 495.398 22.0831 493.9 24.1439C492.401 26.1109 491.277 28.4527 490.528 31.1691C489.872 33.7919 489.544 36.5551 489.544 39.4589V64.1877C489.544 67.3725 489.872 70.3231 490.528 73.0395C491.183 75.6623 492.214 77.9572 493.619 79.9242C495.024 81.8913 496.85 83.4369 499.098 84.5609C501.44 85.5913 504.25 86.1065 507.529 86.1065Z" fill="#0C0C0C"/>
<path d="M609.999 79.9242H576.559L571.782 101H552.392L575.857 2.64663H610.702L634.166 101H614.777L609.999 79.9242ZM580.493 62.2206H605.925L594.544 11.92H592.015L580.493 62.2206Z" fill="#0C0C0C"/>
<path d="M686.055 15.8541C692.425 17.1655 697.343 19.7882 700.808 23.7224C704.274 27.6565 706.007 32.34 706.007 37.7728V39.7399H689.989V37.7728C689.989 36.6488 689.662 35.5716 689.006 34.5412C688.444 33.4172 687.46 32.4805 686.055 31.7311V44.3765C700.48 46.3436 707.693 53.2283 707.693 65.0307V65.8738C707.693 72.1497 705.773 77.2547 701.932 81.1888C698.186 85.1229 692.893 87.5115 686.055 88.3545V97.0658H672.567V87.933C668.726 87.2773 665.448 86.2001 662.732 84.7014C660.015 83.109 657.767 81.2356 655.987 79.0812C654.301 76.9268 653.037 74.5382 652.194 71.9155C651.351 69.1991 650.929 66.4358 650.929 63.6257V60.8156H666.947V62.7827C666.947 64.9371 667.368 66.8105 668.211 68.4029C669.054 69.9952 670.506 71.2598 672.567 72.1965V57.022C666.104 55.8979 660.999 53.7904 657.252 50.6993C653.599 47.6082 651.772 43.112 651.772 37.2108V36.3678C651.772 33.183 652.334 30.4197 653.458 28.078C654.582 25.6426 656.081 23.5818 657.954 21.8958C659.828 20.1161 662.029 18.711 664.558 17.6806C667.087 16.6503 669.757 15.9009 672.567 15.4326V6.58076H686.055V15.8541ZM691.675 66.1548C691.675 64.7497 691.348 63.4852 690.692 62.3612C690.036 61.1434 688.491 60.1599 686.055 59.4106V72.7585C688.21 72.1028 689.662 71.1661 690.411 69.9484C691.254 68.7307 691.675 67.4662 691.675 66.1548ZM667.79 36.3678C667.79 37.6792 668.071 38.8032 668.633 39.7399C669.195 40.5829 670.506 41.3791 672.567 42.1285V31.0286C670.881 31.5906 669.663 32.3868 668.914 33.4172C668.164 34.3539 667.79 35.3374 667.79 36.3678Z" fill="#0C0C0C"/>
<path d="M730.919 2.64663H749.466V42.831H781.22V2.64663H799.766V101H781.22V60.5346H749.466V101H730.919V2.64663Z" fill="#0C0C0C"/>
</svg>
