<svg width="1063" height="171" viewBox="0 0 1063 171" fill="none" xmlns="http://www.w3.org/2000/svg">
<path d="M36.5312 107.261H78.6827V157H61.8221V146.041H59.293C58.169 149.694 56.0146 152.785 52.8298 155.314C49.645 157.749 44.8679 158.967 38.4983 158.967C34.0022 158.967 29.787 158.124 25.8529 156.438C21.9187 154.752 18.4998 152.27 15.596 148.991C12.6923 145.619 10.3974 141.498 8.7113 136.627C7.02524 131.662 6.18221 125.902 6.18221 119.345V96.302C6.18221 89.9325 7.07208 84.3123 8.8518 79.4415C10.7252 74.477 13.2543 70.3087 16.4391 66.9365C19.7175 63.5644 23.6048 61.0353 28.101 59.3493C32.5971 57.5696 37.5616 56.6797 42.9945 56.6797C48.6147 56.6797 53.626 57.6164 58.0285 59.4898C62.4309 61.2695 66.1777 63.7986 69.2688 67.077C72.36 70.2618 74.7017 74.0555 76.2941 78.4579C77.8865 82.7667 78.6827 87.4034 78.6827 92.3679V94.054H60.136V92.3679C60.136 86.4667 58.5905 82.0174 55.4994 79.02C52.5019 75.9288 48.24 74.3833 42.7134 74.3833C37.4679 74.3833 33.1591 76.163 29.787 79.7225C26.4149 83.1883 24.7288 89.1831 24.7288 97.7071V118.502C24.7288 133.676 30.9111 141.264 43.2755 141.264C48.802 141.264 52.9703 139.812 55.7804 136.908C58.6842 133.91 60.136 129.929 60.136 124.965H36.5312V107.261Z" fill="#0C0C0C"/>
<path d="M92.7759 96.8641C92.7759 84.125 95.9607 74.2428 102.33 67.2175C108.793 60.1923 117.692 56.6797 129.026 56.6797C140.36 56.6797 149.212 60.1923 155.582 67.2175C162.045 74.2428 165.276 84.125 165.276 96.8641V118.783C165.276 131.897 162.045 141.872 155.582 148.71C149.212 155.548 140.36 158.967 129.026 158.967C117.692 158.967 108.793 155.548 102.33 148.71C95.9607 141.872 92.7759 131.897 92.7759 118.783V96.8641ZM129.026 142.107C132.398 142.107 135.208 141.591 137.456 140.561C139.705 139.437 141.531 137.891 142.936 135.924C144.341 133.957 145.325 131.616 145.887 128.899C146.449 126.183 146.73 123.185 146.73 119.907V95.74C146.73 92.6489 146.402 89.7451 145.746 87.0287C145.091 84.3123 144.06 81.9705 142.655 80.0035C141.25 78.0364 139.424 76.4909 137.175 75.3668C134.927 74.1491 132.211 73.5403 129.026 73.5403C125.841 73.5403 123.125 74.1491 120.877 75.3668C118.629 76.4909 116.802 78.0364 115.397 80.0035C113.992 81.9705 112.962 84.3123 112.306 87.0287C111.65 89.7451 111.323 92.6489 111.323 95.74V119.907C111.323 123.185 111.604 126.183 112.166 128.899C112.728 131.616 113.711 133.957 115.116 135.924C116.521 137.891 118.348 139.437 120.596 140.561C122.844 141.591 125.654 142.107 129.026 142.107Z" fill="#0C0C0C"/>
<path d="M248.358 157H229.811V127.494C229.811 125.246 229.202 123.419 227.984 122.014C226.86 120.609 224.94 119.907 222.224 119.907H200.867V157H182.32V58.6468H219.976C225.034 58.6468 229.483 59.3493 233.324 60.7543C237.164 62.1594 240.349 64.1264 242.878 66.6555C245.501 69.0909 247.468 71.9479 248.779 75.2263C250.184 78.5048 250.887 82.0174 250.887 85.7642V89.1363C250.887 93.1641 249.809 96.9577 247.655 100.517C245.501 103.983 242.175 106.653 237.679 108.526V111.055C240.958 111.43 243.534 112.694 245.407 114.849C247.374 117.003 248.358 119.719 248.358 122.998V157ZM200.867 102.203H218.571C223.067 102.203 226.486 101.173 228.827 99.1121C231.169 96.9577 232.34 93.9603 232.34 90.1198V88.4338C232.34 85.1553 231.169 82.3452 228.827 80.0035C226.486 77.5681 223.067 76.3504 218.571 76.3504H200.867V102.203Z" fill="#0C0C0C"/>
<path d="M268.211 58.6468H333.968V76.3504H310.363V139.296H333.968V157H268.211V139.296H291.816V76.3504H268.211V58.6468Z" fill="#0C0C0C"/>
<path d="M355.648 58.6468H374.195V139.296H418.875V157H355.648V58.6468Z" fill="#0C0C0C"/>
<path d="M441.68 58.6468H460.227V139.296H504.907V157H441.68V58.6468Z" fill="#0C0C0C"/>
<path d="M575.905 135.924H542.465L537.688 157H518.298L541.762 58.6468H576.607L600.072 157H580.682L575.905 135.924ZM546.399 118.221H571.83L560.449 67.9201H557.92L546.399 118.221Z" fill="#0C0C0C"/>
<path d="M731.529 142.107C735.089 142.107 737.992 141.591 740.241 140.561C742.582 139.437 744.362 137.985 745.58 136.205C746.891 134.332 747.781 132.224 748.249 129.883C748.718 127.447 748.952 124.965 748.952 122.436V119.907H767.498V122.436C767.498 134.145 764.407 143.184 758.225 149.553C752.137 155.829 743.238 158.967 731.529 158.967C720.289 158.967 711.39 155.548 704.833 148.71C698.276 141.872 694.998 131.897 694.998 118.783V96.8641C694.998 90.5882 695.841 84.968 697.527 80.0035C699.213 74.9453 701.649 70.7302 704.833 67.3581C708.018 63.8923 711.859 61.2695 716.355 59.4898C720.851 57.6164 725.909 56.6797 731.529 56.6797C737.337 56.6797 742.489 57.5227 746.985 59.2088C751.481 60.8948 755.228 63.3302 758.225 66.515C761.316 69.6998 763.611 73.5403 765.11 78.0364C766.702 82.5326 767.498 87.5907 767.498 93.2109V95.74H748.952V93.2109C748.952 90.8692 748.671 88.5274 748.109 86.1857C747.547 83.8439 746.61 81.7364 745.299 79.863C743.987 77.9896 742.208 76.4909 739.959 75.3668C737.711 74.1491 734.901 73.5403 731.529 73.5403C728.438 73.5403 725.769 74.1491 723.52 75.3668C721.272 76.4909 719.399 78.0833 717.9 80.144C716.402 82.1111 715.277 84.4528 714.528 87.1692C713.872 89.792 713.545 92.5552 713.545 95.459V120.188C713.545 123.373 713.872 126.323 714.528 129.04C715.184 131.662 716.214 133.957 717.619 135.924C719.024 137.891 720.851 139.437 723.099 140.561C725.441 141.591 728.251 142.107 731.529 142.107Z" fill="#0C0C0C"/>
<path d="M834 135.924H800.56L795.783 157H776.393L799.857 58.6468H834.703L858.167 157H838.777L834 135.924ZM804.494 118.221H829.925L818.544 67.9201H816.015L804.494 118.221Z" fill="#0C0C0C"/>
<path d="M910.056 71.8542C916.425 73.1656 921.343 75.7883 924.809 79.7225C928.275 83.6566 930.008 88.3401 930.008 93.7729V95.74H913.99V93.7729C913.99 92.6489 913.662 91.5717 913.006 90.5413C912.444 89.4173 911.461 88.4806 910.056 87.7312V100.377C924.481 102.344 931.694 109.228 931.694 121.031V121.874C931.694 128.15 929.773 133.255 925.933 137.189C922.186 141.123 916.894 143.512 910.056 144.355V153.066H896.567V143.933C892.727 143.277 889.449 142.2 886.732 140.702C884.016 139.109 881.768 137.236 879.988 135.081C878.302 132.927 877.037 130.538 876.194 127.916C875.351 125.199 874.93 122.436 874.93 119.626V116.816H890.947V118.783C890.947 120.937 891.369 122.811 892.212 124.403C893.055 125.995 894.507 127.26 896.567 128.197V113.022C890.104 111.898 884.999 109.79 881.252 106.699C877.599 103.608 875.773 99.1121 875.773 93.2109V92.3679C875.773 89.1831 876.335 86.4199 877.459 84.0781C878.583 81.6427 880.082 79.582 881.955 77.8959C883.828 76.1162 886.03 74.7111 888.559 73.6808C891.088 72.6504 893.757 71.901 896.567 71.4327V62.5809H910.056V71.8542ZM915.676 122.155C915.676 120.75 915.348 119.485 914.693 118.361C914.037 117.144 912.491 116.16 910.056 115.411V128.759C912.21 128.103 913.662 127.166 914.412 125.949C915.255 124.731 915.676 123.466 915.676 122.155ZM891.79 92.3679C891.79 93.6793 892.071 94.8033 892.633 95.74C893.195 96.583 894.507 97.3792 896.567 98.1286V87.0287C894.881 87.5907 893.664 88.3869 892.914 89.4173C892.165 90.354 891.79 91.3375 891.79 92.3679Z" fill="#0C0C0C"/>
<path d="M954.92 58.6468H973.466V98.8311H1005.22V58.6468H1023.77V157H1005.22V116.535H973.466V157H954.92V58.6468Z" fill="#0C0C0C"/>
</svg>
