<svg width="818" height="103" viewBox="0 0 818 103" fill="none" xmlns="http://www.w3.org/2000/svg">
<path d="M30.5307 51.2613H72.6821V101H55.8215V90.0406H53.2924C52.1684 93.6937 50.014 96.7848 46.8292 99.3139C43.6444 101.749 38.8673 102.967 32.4977 102.967C28.0016 102.967 23.7864 102.124 19.8523 100.438C15.9182 98.7519 12.4992 96.2696 9.59546 92.9912C6.69169 89.6191 4.39678 85.4976 2.71073 80.6268C1.02467 75.6623 0.181641 69.9016 0.181641 63.3447V40.3019C0.181641 33.9324 1.0715 28.3122 2.85123 23.4413C4.72463 18.4768 7.25371 14.3085 10.4385 10.9364C13.7169 7.5643 17.6042 5.03521 22.1004 3.34916C26.5965 1.56943 31.561 0.679565 36.9939 0.679565C42.6141 0.679565 47.6254 1.61627 52.0279 3.48967C56.4304 5.26939 60.1772 7.79848 63.2683 11.0769C66.3594 14.2617 68.7011 18.0553 70.2935 22.4578C71.8859 26.7666 72.6821 31.4033 72.6821 36.3678V38.0538H54.1355V36.3678C54.1355 30.4666 52.5899 26.0173 49.4988 23.0198C46.5014 19.9287 42.2394 18.3832 36.7129 18.3832C31.4674 18.3832 27.1586 20.1629 23.7864 23.7224C20.4143 27.1881 18.7283 33.183 18.7283 41.707V62.5017C18.7283 77.6762 24.9105 85.2634 37.2749 85.2634C42.8014 85.2634 46.9697 83.8115 49.7798 80.9078C52.6836 77.9103 54.1355 73.9294 54.1355 68.9649H30.5307V51.2613Z" fill="#0C0C0C"/>
<path d="M86.7754 40.8639C86.7754 28.1248 89.9601 18.2427 96.3297 11.2174C102.793 4.19219 111.692 0.679565 123.026 0.679565C134.36 0.679565 143.211 4.19219 149.581 11.2174C156.044 18.2427 159.276 28.1248 159.276 40.8639V62.7827C159.276 75.8964 156.044 85.8723 149.581 92.7102C143.211 99.5481 134.36 102.967 123.026 102.967C111.692 102.967 102.793 99.5481 96.3297 92.7102C89.9601 85.8723 86.7754 75.8964 86.7754 62.7827V40.8639ZM123.026 86.1065C126.398 86.1065 129.208 85.5913 131.456 84.5609C133.704 83.4369 135.531 81.8913 136.936 79.9242C138.341 77.9572 139.324 75.6154 139.886 72.899C140.448 70.1826 140.729 67.1852 140.729 63.9067V39.7399C140.729 36.6488 140.401 33.745 139.746 31.0286C139.09 28.3122 138.06 25.9704 136.655 24.0034C135.25 22.0363 133.423 20.4907 131.175 19.3667C128.927 18.149 126.21 17.5401 123.026 17.5401C119.841 17.5401 117.124 18.149 114.876 19.3667C112.628 20.4907 110.802 22.0363 109.397 24.0034C107.992 25.9704 106.961 28.3122 106.306 31.0286C105.65 33.745 105.322 36.6488 105.322 39.7399V63.9067C105.322 67.1852 105.603 70.1826 106.165 72.899C106.727 75.6154 107.711 77.9572 109.116 79.9242C110.521 81.8913 112.347 83.4369 114.595 84.5609C116.843 85.5913 119.653 86.1065 123.026 86.1065Z" fill="#0C0C0C"/>
<path d="M242.357 101H223.81V71.494C223.81 69.2459 223.201 67.4193 221.984 66.0143C220.86 64.6092 218.939 63.9067 216.223 63.9067H194.866V101H176.32V2.64663H213.975C219.033 2.64663 223.482 3.34916 227.323 4.7542C231.163 6.15926 234.348 8.12632 236.877 10.6554C239.5 13.0908 241.467 15.9478 242.778 19.2262C244.184 22.5046 244.886 26.0173 244.886 29.7641V33.1362C244.886 37.164 243.809 40.9576 241.654 44.5171C239.5 47.9828 236.175 50.6524 231.679 52.5258V55.0549C234.957 55.4296 237.533 56.6941 239.406 58.8485C241.373 61.0029 242.357 63.7194 242.357 66.9978V101ZM194.866 46.2031H212.57C217.066 46.2031 220.485 45.1727 222.827 43.112C225.169 40.9576 226.339 37.9602 226.339 34.1197V32.4336C226.339 29.1552 225.169 26.3451 222.827 24.0034C220.485 21.5679 217.066 20.3502 212.57 20.3502H194.866V46.2031Z" fill="#0C0C0C"/>
<path d="M262.211 2.64663H327.967V20.3502H304.362V83.2964H327.967V101H262.211V83.2964H285.816V20.3502H262.211V2.64663Z" fill="#0C0C0C"/>
<path d="M349.648 2.64663H368.194V83.2964H412.875V101H349.648V2.64663Z" fill="#0C0C0C"/>
<path d="M435.679 2.64663H454.226V83.2964H498.907V101H435.679V2.64663Z" fill="#0C0C0C"/>
<path d="M569.904 79.9242H536.464L531.687 101H512.297L535.762 2.64663H570.607L594.071 101H574.681L569.904 79.9242ZM540.398 62.2206H565.83L554.449 11.92H551.92L540.398 62.2206Z" fill="#0C0C0C"/>
<path d="M725.529 86.1065C729.088 86.1065 731.992 85.5913 734.24 84.5609C736.582 83.4369 738.361 81.985 739.579 80.2053C740.891 78.3319 741.78 76.2243 742.249 73.8825C742.717 71.4471 742.951 68.9649 742.951 66.4358V63.9067H761.498V66.4358C761.498 78.1445 758.407 87.1837 752.225 93.5532C746.136 99.8291 737.237 102.967 725.529 102.967C714.288 102.967 705.39 99.5481 698.833 92.7102C692.276 85.8723 688.997 75.8964 688.997 62.7827V40.8639C688.997 34.5881 689.84 28.9679 691.526 24.0034C693.213 18.9452 695.648 14.73 698.833 11.3579C702.018 7.89215 705.858 5.26939 710.354 3.48967C714.85 1.61627 719.908 0.679565 725.529 0.679565C731.336 0.679565 736.488 1.52259 740.984 3.20865C745.48 4.89471 749.227 7.33013 752.225 10.5149C755.316 13.6997 757.611 17.5401 759.109 22.0363C760.702 26.5324 761.498 31.5906 761.498 37.2108V39.7399H742.951V37.2108C742.951 34.8691 742.67 32.5273 742.108 30.1856C741.546 27.8438 740.609 25.7362 739.298 23.8629C737.987 21.9895 736.207 20.4907 733.959 19.3667C731.711 18.149 728.901 17.5401 725.529 17.5401C722.438 17.5401 719.768 18.149 717.52 19.3667C715.272 20.4907 713.398 22.0831 711.9 24.1439C710.401 26.1109 709.277 28.4527 708.528 31.1691C707.872 33.7919 707.544 36.5551 707.544 39.4589V64.1877C707.544 67.3725 707.872 70.3231 708.528 73.0395C709.183 75.6623 710.214 77.9572 711.619 79.9242C713.024 81.8913 714.85 83.4369 717.098 84.5609C719.44 85.5913 722.25 86.1065 725.529 86.1065Z" fill="#0C0C0C"/>
<path d="M827.999 79.9242H794.559L789.782 101H770.392L793.857 2.64663H828.702L852.166 101H832.777L827.999 79.9242ZM798.493 62.2206H823.925L812.544 11.92H810.015L798.493 62.2206Z" fill="#0C0C0C"/>
<path d="M904.055 15.8541C910.425 17.1655 915.343 19.7882 918.808 23.7224C922.274 27.6565 924.007 32.34 924.007 37.7728V39.7399H907.989V37.7728C907.989 36.6488 907.662 35.5716 907.006 34.5412C906.444 33.4172 905.46 32.4805 904.055 31.7311V44.3765C918.48 46.3436 925.693 53.2283 925.693 65.0307V65.8738C925.693 72.1497 923.773 77.2547 919.932 81.1888C916.186 85.1229 910.893 87.5115 904.055 88.3545V97.0658H890.567V87.933C886.726 87.2773 883.448 86.2001 880.732 84.7014C878.015 83.109 875.767 81.2356 873.987 79.0812C872.301 76.9268 871.037 74.5382 870.194 71.9155C869.351 69.1991 868.929 66.4358 868.929 63.6257V60.8156H884.947V62.7827C884.947 64.9371 885.368 66.8105 886.211 68.4029C887.054 69.9952 888.506 71.2598 890.567 72.1965V57.022C884.104 55.8979 878.999 53.7904 875.252 50.6993C871.599 47.6082 869.772 43.112 869.772 37.2108V36.3678C869.772 33.183 870.334 30.4197 871.458 28.078C872.582 25.6426 874.081 23.5818 875.954 21.8958C877.828 20.1161 880.029 18.711 882.558 17.6806C885.087 16.6503 887.757 15.9009 890.567 15.4326V6.58076H904.055V15.8541ZM909.675 66.1548C909.675 64.7497 909.348 63.4852 908.692 62.3612C908.036 61.1434 906.491 60.1599 904.055 59.4106V72.7585C906.21 72.1028 907.662 71.1661 908.411 69.9484C909.254 68.7307 909.675 67.4662 909.675 66.1548ZM885.79 36.3678C885.79 37.6792 886.071 38.8032 886.633 39.7399C887.195 40.5829 888.506 41.3791 890.567 42.1285V31.0286C888.881 31.5906 887.663 32.3868 886.914 33.4172C886.164 34.3539 885.79 35.3374 885.79 36.3678Z" fill="#0C0C0C"/>
<path d="M948.919 2.64663H967.466V42.831H999.22V2.64663H1017.77V101H999.22V60.5346H967.466V101H948.919V2.64663Z" fill="#0C0C0C"/>
</svg>
