<svg width="92" height="92" viewBox="0 0 92 92" fill="none" xmlns="http://www.w3.org/2000/svg">
<path d="M83.2469 60.7967L51.4528 85.242L14.3307 70.0634L9.00316 30.4431L40.7973 5.99787L77.9194 21.1764L83.2469 60.7967Z" fill="#0C0C0C" stroke="#0C0C0C"/>
<path d="M78.9737 60.5177L48.8179 83.7897L13.5859 69.31L8.50963 31.5583L38.6654 8.28633L73.8975 22.766L78.9737 60.5177Z" fill="white" stroke="#0C0C0C"/>
<g clip-path="url(#clip0_448_232)">
<path d="M35.1192 48.4467L35.1192 48.4467L35.1228 48.4518C36.279 50.1305 37.6551 51.577 39.0683 52.8457L39.0767 52.8532L39.0847 52.8611C39.7335 53.4984 40.7889 54.452 41.7752 55.2514C42.2688 55.6515 42.7368 56.0063 43.1232 56.2622C43.3168 56.3904 43.4815 56.4882 43.6132 56.5538C43.6775 56.5858 43.7247 56.6054 43.757 56.6173C43.9522 56.545 44.1953 56.38 44.4825 56.1351C44.6418 55.9993 44.7984 55.8536 44.9552 55.7077L44.9624 55.701C45.1114 55.5622 45.2649 55.4193 45.4075 55.3004C48.389 52.7293 51.518 49.6689 53.0651 46.3966C54.3463 43.2617 54.2332 39.5253 52.2214 37.294C49.6006 34.8154 45.7503 35.3805 43.8325 38.0632L43.4306 38.6254L43.0223 38.0677C42.4799 37.3268 41.8246 36.7521 41.0546 36.3372C37.9078 35.0432 34.7041 36.4714 33.4319 39.6011C32.5597 42.7917 33.4027 46.0199 35.1192 48.4467Z" fill="#0C0C0C" stroke="#0C0C0C"/>
</g>
<defs>
<clipPath id="clip0_448_232">
<rect width="21.8198" height="23.8654" fill="white" transform="matrix(-0.999838 0.0179803 0.0179803 0.999838 54.2598 34.0779)"/>
</clipPath>
</defs>
</svg>
