<svg width="179" height="183" viewBox="0 0 179 183" fill="none" xmlns="http://www.w3.org/2000/svg">
<path d="M31.8507 40.8316L106.945 14.6495L166.61 66.2386L151.685 143.471L77.0869 169.119L17.4844 119.862L31.8507 40.8316Z" fill="#0C0C0C" stroke="#0C0C0C"/>
<path d="M32.3702 42.5425L103.69 17.8843L160.688 67.339L146.366 141.452L75.0461 166.11L18.0483 116.656L32.3702 42.5425Z" fill="white" stroke="#0C0C0C"/>
<path fill-rule="evenodd" clip-rule="evenodd" d="M86.6359 86.2077L92.1108 87.2657L91.5838 89.9928C92.6755 88.5767 94.9703 87.5583 98.0085 88.1454C103.833 89.2709 104.612 92.6603 103.505 98.3887L101.455 108.998L95.5585 107.858L97.3565 98.5538C97.9869 95.2916 97.5538 93.2995 95.5461 92.9115C92.7615 92.3734 91.2211 94.1325 90.6187 97.2503L88.8203 106.556L82.9239 105.417L86.6359 86.2077ZM72.8613 103.212L78.7578 104.352L82.4698 85.1427L76.5734 84.0032L72.8613 103.212ZM84.5249 79.0424C84.4296 79.5367 84.237 80.0071 83.9583 80.4263C83.6797 80.8455 83.3204 81.2051 82.9016 81.4843C82.0518 82.055 81.0102 82.2651 80.0056 82.0684C79.0024 81.8739 78.1162 81.2923 77.5384 80.4494C77.2552 80.0333 77.0569 79.5655 76.9548 79.0727C76.8527 78.5798 76.8489 78.0717 76.9435 77.5774C77.1364 76.5794 77.719 75.7011 78.5671 75.134C79.4168 74.566 80.4564 74.3564 81.4599 74.5507C82.4652 74.745 83.3527 75.3279 83.9285 76.1701C84.5028 77.012 84.7177 78.0444 84.5249 79.0424Z" fill="#0C0C0C"/>
</svg>
