<svg width="133" height="137" viewBox="0 0 133 137" fill="none" xmlns="http://www.w3.org/2000/svg">
<path d="M22.2377 31.3587L78.0972 10.4554L123.724 48.1012L113.862 106.237L58.3639 126.732L12.8248 90.8336L22.2377 31.3587Z" fill="#0C0C0C" stroke="#0C0C0C"/>
<path d="M22.6573 32.6356L75.7063 12.9411L119.292 49.029L109.829 104.811L56.7802 124.506L13.1942 88.4178L22.6573 32.6356Z" fill="white" stroke="#0C0C0C"/>
<path d="M68.4578 47.2851L85.036 61.0135L81.436 82.2349L61.2576 89.7279L44.6794 75.9995L48.2794 54.778L68.4578 47.2851Z" fill="#0C0C0C"/>
<g clip-path="url(#clip0_448_251)">
<path d="M58.6469 72.1953C58.4473 74.7006 60.1711 76.795 63.2093 77.5434L62.9039 79.3438L64.4481 79.6057L64.7535 77.8054C68.1594 78.1105 70.5602 76.6001 71.0279 73.8433C71.4273 71.4892 70.2562 69.8892 67.4119 68.6177L66.3899 68.1595L67.3448 62.5304C68.9784 62.9751 69.9475 64.0595 70.0037 65.4429L72.1801 65.8121C72.3362 63.4015 70.5903 61.3567 67.661 60.6664L67.9645 58.8778L66.4202 58.6159L66.1105 60.4414C63.182 60.2949 60.8994 61.7995 60.4764 64.2928C60.1112 66.4455 61.283 68.2116 63.6835 69.2799L64.546 69.673L63.5335 75.6411C61.8751 75.1008 60.8622 73.9694 60.81 72.5623L58.6469 72.1953ZM64.6309 67.3676C63.1528 66.7162 62.4692 65.7443 62.6679 64.5731C62.905 63.1755 64.1224 62.3203 65.7921 62.3188L64.9142 67.4933L64.6307 67.3691L64.6309 67.3676ZM66.5163 70.5388C68.3407 71.3403 69.0426 72.2758 68.814 73.6231C68.5385 75.2473 67.1319 76.1221 65.0698 75.9413L66.0229 70.3226L66.5166 70.5373L66.5163 70.5388Z" fill="white"/>
</g>
<defs>
<clipPath id="clip0_448_251">
<rect width="24.0275" height="24.0275" fill="white" transform="translate(55.4316 55.2287) rotate(9.62814)"/>
</clipPath>
</defs>
</svg>
