<svg width="24" height="29" viewBox="0 0 24 29" fill="none" xmlns="http://www.w3.org/2000/svg">
<path fill-rule="evenodd" clip-rule="evenodd" d="M7.34783 27.9714L7.82127 24.8316L6.76662 24.8059H1.73047L5.23042 1.63643C5.24132 1.56627 5.27657 1.50114 5.32805 1.45481C5.37978 1.40847 5.44571 1.38306 5.51468 1.38306H14.0064C16.8257 1.38306 18.7712 1.99544 19.7868 3.20431C20.2631 3.77141 20.5663 4.3642 20.7132 5.01629C20.8671 5.70068 20.8696 6.51825 20.7195 7.51558L20.7086 7.58812V8.22724L21.1848 8.50894C21.5857 8.73107 21.9045 8.98524 22.1489 9.2762C22.5562 9.76123 22.8197 10.3776 22.931 11.108C23.0461 11.8594 23.0081 12.7538 22.8197 13.7662C22.6024 14.9306 22.2511 15.9449 21.7767 16.7746C21.3405 17.5392 20.7847 18.1736 20.1246 18.6649C19.4944 19.132 18.7459 19.4865 17.8994 19.7134C17.0791 19.9363 16.1439 20.0488 15.1181 20.0488H14.4573C13.9849 20.0488 13.5259 20.2265 13.1655 20.545C12.8042 20.8701 12.5653 21.3144 12.492 21.8002L12.4421 22.0829L11.6055 27.6171L11.5677 27.8202C11.5576 27.8845 11.5403 27.9166 11.515 27.9383C11.4924 27.9581 11.4599 27.9714 11.4282 27.9714H7.34783Z" fill="#4E4E4E"/>
<path fill-rule="evenodd" clip-rule="evenodd" d="M21.6362 7.66187C21.6111 7.83104 21.5819 8.00393 21.5494 8.18158C20.4296 14.1846 16.5982 16.2585 11.7051 16.2585H9.21366C8.6152 16.2585 8.11082 16.712 8.01776 17.3283L6.38088 28.1687C6.32028 28.5735 6.619 28.9381 7.01002 28.9381H11.429C11.9521 28.9381 12.3966 28.5412 12.479 28.0025L12.5224 27.7682L13.3544 22.2557L13.4079 21.9533C13.4893 21.4127 13.9349 21.0156 14.458 21.0156H15.1188C19.4001 21.0156 22.7517 19.2009 23.7313 13.9493C24.1403 11.7555 23.9286 9.92367 22.8458 8.63537C22.5181 8.24697 22.1116 7.9245 21.6362 7.66187Z" fill="#7E7E7E"/>
<path fill-rule="evenodd" clip-rule="evenodd" d="M20.4627 7.17428C20.2916 7.12212 20.1151 7.07499 19.934 7.03237C19.7519 6.9908 19.5656 6.954 19.3736 6.9217C18.7019 6.80838 17.9657 6.75464 17.1773 6.75464H10.5215C10.3575 6.75464 10.2018 6.79329 10.0625 6.86319C9.75546 7.01728 9.52748 7.32068 9.4722 7.69214L8.0562 17.0555L8.01562 17.3284C8.10869 16.7121 8.61307 16.2585 9.21152 16.2585H11.703C16.5961 16.2585 20.4275 14.1837 21.5473 8.18167C21.5808 8.00402 21.6089 7.83113 21.634 7.66195C21.3508 7.50495 21.0439 7.37072 20.7135 7.25635C20.6319 7.22802 20.5477 7.20075 20.4627 7.17428Z" fill="#636363"/>
<path fill-rule="evenodd" clip-rule="evenodd" d="M9.47317 7.6921C9.52846 7.32065 9.75643 7.01724 10.0635 6.86421C10.2037 6.79405 10.3584 6.75539 10.5225 6.75539H17.1783C17.9667 6.75539 18.7028 6.8094 19.3746 6.92272C19.5665 6.95475 19.7529 6.99182 19.935 7.03339C20.116 7.07575 20.2925 7.12314 20.4637 7.17503C20.5487 7.20151 20.6328 7.22904 20.7153 7.25631C21.0457 7.37068 21.3528 7.50597 21.636 7.66192C21.9692 5.44353 21.6332 3.9331 20.4845 2.56538C19.2179 1.05945 16.9321 0.415039 14.007 0.415039H5.515C4.91756 0.415039 4.40786 0.868565 4.31556 1.48597L0.778583 24.8938C0.708848 25.3568 1.05093 25.7746 1.49825 25.7746H6.74082L9.47317 7.6921Z" fill="#4E4E4E"/>
</svg>
