<svg width="41" height="46" viewBox="0 0 41 46" fill="none" xmlns="http://www.w3.org/2000/svg">
<path d="M20.6937 0.606201C20.8213 0.715599 20.936 0.844303 21.0776 0.930535C22.131 1.57148 23.1907 2.20341 24.2479 2.83792C24.327 2.88554 24.4048 2.93316 24.5297 3.0091C22.2419 4.5278 19.9898 6.02334 17.7377 7.51888C17.7479 7.54205 17.7581 7.56521 17.7683 7.58838C17.8792 7.55234 17.9965 7.5266 18.1024 7.47769C20.556 6.34381 23.0071 5.20607 25.4594 4.07091C25.6176 3.99754 25.7782 3.93319 25.9555 3.85597C26.4006 4.11724 26.8367 4.37207 27.3392 4.6668C25.7004 5.40942 24.1268 6.12116 22.5544 6.83417C22.5646 6.86378 22.5748 6.89209 22.5837 6.92169C24.5578 6.4146 26.5306 5.90751 28.552 5.38755C32.138 7.49442 35.7521 9.61932 39.4058 11.7661C39.3713 14.0133 39.3356 16.2682 39.2999 18.581C38.536 18.3236 37.7964 18.0739 37.0567 17.8242C37.0414 17.8576 37.0261 17.8924 37.0108 17.9259C37.7671 18.3866 38.5246 18.8461 39.2897 19.312C39.2897 19.5913 39.2897 19.8616 39.2897 20.1795C37.7365 19.357 36.2138 18.5514 34.7039 17.7521C34.6669 17.7791 34.649 17.7869 34.6426 17.7997C34.6388 17.8087 34.6465 17.8306 34.6554 17.8383C36.1934 19.1743 37.7326 20.5102 39.3038 21.8745C39.2349 25.9982 39.1826 30.1424 39.2578 34.3588C33.0358 38.0796 26.7219 41.7399 20.403 45.4479C13.9055 41.7296 7.37098 38.0719 0.939795 34.2571C0.939795 33.7204 0.939795 33.2377 0.939795 32.701C4.0489 30.2119 7.18607 27.6996 10.3296 25.1835C10.2875 25.1487 10.2761 25.1346 10.262 25.1294C10.2493 25.1255 10.2301 25.1268 10.2174 25.1333C10.1881 25.1461 10.16 25.1603 10.1332 25.177C7.08787 27.1063 4.0438 29.0356 0.957649 30.9906C0.898987 30.441 0.942346 29.9223 0.927043 29.3676C2.68054 28.3946 4.43404 27.4229 6.18626 26.4499C6.17223 26.4164 6.1582 26.3843 6.14417 26.3508C4.41746 26.8862 2.7137 27.495 0.943621 28.0574C0.901537 22.6326 1.09283 17.263 0.958924 11.8613C1.35043 11.6425 1.75469 11.4186 2.1564 11.1921C6.66193 8.65147 11.1713 6.11987 15.6704 3.57154C17.188 2.71179 18.6826 1.80701 20.1849 0.917664C20.3328 0.830146 20.4616 0.710451 20.5994 0.606201C20.63 0.606201 20.6619 0.606201 20.6937 0.606201ZM28.8019 11.2899C26.6008 12.2539 24.406 13.2153 22.2088 14.178C21.5443 13.9167 20.8914 13.6606 20.2627 13.4135C19.6072 13.6709 18.9683 13.9219 18.3154 14.178C16.1193 13.2166 13.9246 12.2552 11.7248 11.2912C10.313 12.129 8.90258 12.9412 7.49724 13.7958C8.52638 16.4355 9.53512 19.0237 10.5541 21.6377C11.8497 21.5115 13.1186 21.388 14.3875 21.2644C14.3901 21.2786 14.3926 21.2928 14.3939 21.3069C14.0623 21.4549 13.7295 21.6042 13.389 21.7561C13.6517 22.6712 13.9042 23.5489 14.1541 24.4215C12.8967 25.8785 11.6584 27.3135 10.4291 28.7383C10.6854 30.0279 10.9366 31.2866 11.1853 32.535C15.7661 31.2454 20.2959 29.97 24.8409 28.6894C25.3561 29.051 25.8662 29.4101 26.4044 29.7885C27.3226 29.0922 28.2829 28.4654 29.2151 27.7228C28.2421 26.5941 27.3009 25.5026 26.3674 24.4215C26.6276 23.5155 26.8775 22.6416 27.1313 21.7561C26.7666 21.5926 26.4452 21.4472 26.1238 21.303C26.1289 21.2902 26.134 21.2773 26.1379 21.2644C27.4055 21.388 28.6718 21.5128 29.9688 21.639C30.9915 19.0147 32.0041 16.4162 33.0269 13.7893C31.5935 12.9399 30.2034 12.1187 28.8019 11.2899ZM11.777 34.185C12.9261 36.4991 16.2877 39.2662 20.9195 38.9676C24.5897 38.7308 27.6733 36.364 28.7432 33.9894C25.7055 32.8439 22.5722 32.351 19.347 32.4874C16.7302 32.5981 14.1911 33.109 11.777 34.185ZM33.7831 25.2208C33.4222 25.9518 33.0524 26.697 32.6851 27.4396C33.1621 28.199 33.6237 28.9326 34.07 29.6443C34.6745 29.7499 35.2356 29.849 35.849 29.9558C35.9141 29.3882 35.9766 28.8515 36.0416 28.2839C35.4894 27.9853 34.95 27.6945 34.3175 27.3521C34.7383 27.2131 35.038 27.1835 35.3389 27.3393C35.6514 27.5014 35.9651 27.6623 36.2724 27.8348C36.3655 27.8875 36.4408 27.9738 36.5453 28.0639C36.465 28.8322 36.3847 29.5967 36.2992 30.405C35.58 30.6328 34.8696 30.858 34.1568 31.0845C34.3544 31.3368 34.3544 31.3432 34.6159 31.3471C35.0635 31.3522 35.5124 31.3509 35.96 31.3484C36.1959 31.3458 36.4331 31.3329 36.6716 31.3239C37.1537 30.396 37.6217 29.4976 38.0961 28.5851C37.5872 27.5851 37.0861 26.5979 36.5747 25.5927C35.6527 25.4718 34.7396 25.3495 33.7831 25.2208ZM25.3561 32.8092C26.3024 32.9855 27.1428 33.1464 27.9845 33.2969C28.0878 33.315 28.2013 33.3034 28.3045 33.2815C30.2085 32.8851 32.1112 32.4861 34.0139 32.0846C34.0956 32.0678 34.1695 32.0189 34.2805 31.9713C33.3036 31.1257 32.4122 30.2544 31.4328 29.4963C29.3656 30.5157 27.3864 31.6122 25.3561 32.8092ZM32.944 25.7716C32.9198 25.7472 32.8968 25.7227 32.8726 25.697C29.8527 27.8875 26.8329 30.0781 23.8143 32.2712C23.7684 32.3046 23.7455 32.3703 23.7072 32.4269C24.151 32.5595 24.5285 32.472 24.9162 32.2635C26.9324 31.1785 28.9588 30.1154 30.9775 29.0356C31.202 28.9159 31.4175 28.8528 31.6866 28.9429C32.1291 29.3457 32.5895 29.7653 33.0549 30.1888C33.2743 30.1283 33.4643 30.0755 33.6875 30.0124C33.6033 29.8644 33.5523 29.7653 33.4949 29.6714C33.1212 29.0703 32.7578 28.4615 32.365 27.8734C32.1712 27.5825 32.1571 27.3238 32.3204 27.0201C32.5423 26.6134 32.7374 26.1886 32.944 25.7716ZM33.6326 30.7242C34.0305 30.5826 34.3927 30.4526 34.8365 30.2943C34.533 30.2299 34.32 30.1849 34.1287 30.1437C33.9094 30.2969 33.7193 30.4294 33.5268 30.5646C33.5676 30.6251 33.5931 30.6637 33.6326 30.7242Z" fill="#0C0C0C"/>
<path d="M21.9688 18.8294C22.3054 18.8461 22.5873 18.8603 22.9443 18.877C24.2324 18.016 25.5714 17.1189 26.9398 16.2039C27.4384 16.4677 27.9421 16.7341 28.4458 17.0018C28.4395 17.0186 28.4344 17.034 28.428 17.0507C28.0518 17.0083 27.6756 16.9658 27.27 16.9207C26.4641 17.7766 25.653 18.6389 24.8266 19.5167C23.86 19.4317 22.8984 19.3404 21.9688 18.8294Z" fill="#0C0C0C"/>
<path d="M15.6828 19.5011C14.8781 18.644 14.0772 17.7932 13.2598 16.9232C12.8747 16.9644 12.487 17.0056 12.0993 17.0455C12.0942 17.03 12.0891 17.0146 12.084 16.9991C12.575 16.7379 13.0659 16.4753 13.5824 16.2012C14.9227 17.0969 16.2618 17.994 17.5817 18.8769C17.9005 18.8589 18.1849 18.8435 18.4999 18.8267C17.6977 19.3068 17.0142 19.3982 15.6828 19.5011Z" fill="#0C0C0C"/>
<path d="M14.7578 22.5104C15.9081 22.3006 17.0316 22.0972 18.1819 21.8875C18.5199 22.6404 18.84 23.3534 19.1996 24.1539C18.8259 24.0059 18.6691 23.7073 18.3592 23.5413C17.4984 23.7343 16.598 23.9377 15.6633 24.1475C15.3687 23.6147 15.0754 23.0831 14.7578 22.5104Z" fill="#0C0C0C"/>
<path d="M24.8642 24.1487C23.923 23.9364 23.0392 23.7369 22.1427 23.5335C21.9055 23.7369 21.676 23.9325 21.4375 24.1359C21.4413 23.8218 21.8596 22.8141 22.3595 21.9119C23.4741 22.0547 24.5874 22.3108 25.7645 22.5052C25.4533 23.0741 25.1664 23.5992 24.8642 24.1487Z" fill="#0C0C0C"/>
</svg>
