<svg width="173" height="179" viewBox="0 0 173 179" fill="none" xmlns="http://www.w3.org/2000/svg">
<path d="M13.7796 52.9606L84.1136 5.9537L159.322 43.1459L164.573 126.656L94.6077 172.98L20.0852 138.172L13.7796 52.9606Z" fill="#0C0C0C" stroke="#0C0C0C"/>
<path d="M14.7703 54.5825L81.6257 10.1515L153.52 45.8587L158.558 125.997L91.7031 170.428L19.809 134.721L14.7703 54.5825Z" fill="white" stroke="#0C0C0C"/>
<path d="M103.678 78.4698L99.7045 100.588C99.3981 102.151 98.3709 102.6 96.8316 101.969L88.3648 97.2952L84.642 100.808C84.2309 101.211 83.8871 101.548 83.0494 101.601L83.1836 94.3969L97.5306 81.6619C98.1548 81.1151 97.3389 80.8851 96.4934 81.4459L78.4792 92.772L70.3125 91.1041C68.5361 90.7425 68.4392 89.7059 70.5355 88.847L101.287 76.4114C102.712 75.8485 104.031 76.52 103.678 78.4698Z" fill="#0C0C0C"/>
</svg>
