<svg width="20" height="23" viewBox="0 0 20 23" fill="none" xmlns="http://www.w3.org/2000/svg">
<path d="M16.8395 14.6708H15.7782V13.6145H14.7169V14.6708H10.5188V13.6145H13.6792V12.5582H15.7782V11.5019H16.8395V12.5582H18.9386V11.5019H17.9009V10.4456H15.7782V9.38932H11.5801V8.33302H17.9009V7.27673H15.7782V6.22043H13.6792V7.27673H9.45747V8.33302H7.35841V7.27673H9.45747V6.22043H8.39615V5.16413H9.45747V6.22043H13.6792V5.16413H10.5188V4.10783H13.6792V3.05153H11.5801V2.08912H10.5188V0H9.45747V3.14542H7.35841V4.20172H6.29709V5.25802H7.35841V6.31432H6.29709V7.37062H5.23577V8.42692H3.13672V9.48322H6.29709V10.5395H10.5188V11.5958H5.25936V10.5395H3.1603V11.5958H4.22162V12.6521H7.382V13.6145H9.48105V14.6708H7.382V13.6145H5.28294V14.6708H3.18389V15.7271H8.44332V16.7834H7.382V17.8397H9.48105V22.0414H10.5424V17.8162H13.7027V16.7599H16.8631V17.8162H18.9622V16.7599H17.9009V15.7271H16.8395V14.6708ZM11.5801 10.4691H14.7405V11.5254H11.5801V10.4691ZM12.6178 16.7599H10.5188V15.7271H12.6178V16.7599Z" fill="#0C0C0C"/>
<path d="M18.9381 14.6709H17.9004V15.7272H19.9994V14.6709H18.9381Z" fill="#0C0C0C"/>
<path d="M2.09843 13.6145H1.03711V14.6708H3.15975V13.6145H2.09843Z" fill="#0C0C0C"/>
<path d="M1.03773 15.7271H0V16.7599H3.16037V15.7271H1.03773Z" fill="#0C0C0C"/>
<path d="M4.19789 17.8163H6.29694V16.76H3.16016V17.8163H4.19789Z" fill="#0C0C0C"/>
</svg>
