<svg width="135" height="152" viewBox="0 0 135 152" fill="none" xmlns="http://www.w3.org/2000/svg">
<path d="M69.1637 2.00269C69.5899 2.36418 69.9735 2.78946 70.4466 3.0744C73.9673 5.1923 77.5093 7.28043 81.0427 9.37707C81.307 9.53443 81.567 9.69178 81.9847 9.9427C74.3381 14.961 66.8109 19.9028 59.2836 24.8446C59.3177 24.9211 59.3518 24.9977 59.3859 25.0742C59.7568 24.9551 60.1489 24.8701 60.5027 24.7085C68.7033 20.9618 76.8955 17.2023 85.0919 13.4513C85.6204 13.2089 86.1575 12.9962 86.7499 12.7411C88.2375 13.6044 89.6952 14.4464 91.3745 15.4203C85.8975 17.8742 80.6378 20.226 75.3824 22.5821C75.4165 22.6799 75.4506 22.7735 75.4804 22.8713C82.0785 21.1957 88.6722 19.52 95.428 17.8019C107.414 24.7638 119.493 31.7852 131.704 38.8789C131.589 46.3043 131.47 53.7552 131.351 61.3975C128.798 60.547 126.325 59.7219 123.853 58.8969C123.802 59.0075 123.751 59.1223 123.7 59.2329C126.227 60.7554 128.759 62.2736 131.317 63.8131C131.317 64.736 131.317 65.6291 131.317 66.6795C126.125 63.962 121.036 61.2997 115.989 58.6587C115.866 58.748 115.806 58.7736 115.785 58.8161C115.772 58.8459 115.798 58.9182 115.827 58.9437C120.968 63.3581 126.112 67.7725 131.363 72.2805C131.133 85.9065 130.959 99.6006 131.21 113.533C110.414 125.828 89.3116 137.923 68.1919 150.175C46.4754 137.889 24.6354 125.802 3.14059 113.197C3.14059 111.423 3.14059 109.829 3.14059 108.055C13.5321 99.8303 24.0174 91.5288 34.5239 83.2145C34.3833 83.0997 34.3449 83.0529 34.298 83.0359C34.2554 83.0231 34.1915 83.0274 34.1488 83.0486C34.0508 83.0912 33.957 83.138 33.8675 83.1932C23.6892 89.5682 13.515 95.9432 3.20026 102.403C3.0042 100.587 3.14911 98.8734 3.09797 97.0404C8.95863 93.8253 14.8193 90.6144 20.6757 87.3993C20.6288 87.2887 20.5819 87.1824 20.535 87.0718C14.7639 88.841 9.06945 90.8526 3.15338 92.7111C3.01272 74.7854 3.65207 57.0427 3.20452 39.1936C4.51305 38.4706 5.8642 37.7306 7.20683 36.9821C22.2655 28.5871 37.337 20.2218 52.3745 11.8012C57.4466 8.9603 62.442 5.97057 67.463 3.03187C67.9574 2.74268 68.3879 2.34716 68.8483 2.00269C68.9506 2.00269 69.0571 2.00269 69.1637 2.00269ZM96.2634 37.3053C88.9067 40.4907 81.5712 43.6675 74.2273 46.8487C72.0066 45.9853 69.8243 45.139 67.723 44.3225C65.5322 45.173 63.3968 46.0023 61.2145 46.8487C53.8748 43.6718 46.5394 40.4949 39.1869 37.3096C34.4685 40.0782 29.7544 42.7617 25.0574 45.5856C28.497 54.3081 31.8685 62.8605 35.2741 71.498C39.6046 71.0812 43.8456 70.6729 48.0866 70.2647C48.0951 70.3115 48.1036 70.3582 48.1079 70.405C46.9997 70.8941 45.8872 71.3874 44.7492 71.8892C45.6272 74.913 46.4712 77.8134 47.3066 80.6968C43.1039 85.511 38.9652 90.2529 34.8564 94.9608C35.7131 99.2221 36.5528 103.381 37.3839 107.507C52.6941 103.245 67.8338 99.0307 83.0247 94.7992C84.7467 95.9942 86.4516 97.1808 88.2503 98.4311C91.3191 96.1303 94.5286 94.0592 97.6444 91.6053C94.3922 87.8756 91.2467 84.2692 88.1267 80.6968C88.9962 77.7029 89.8316 74.8152 90.6798 71.8892C89.4608 71.3491 88.3867 70.8686 87.3126 70.3923C87.3296 70.3497 87.3467 70.3072 87.3595 70.2647C91.5962 70.6729 95.8286 71.0855 100.163 71.5022C103.582 62.8307 106.966 54.2443 110.384 45.5643C105.594 42.7574 100.948 40.0441 96.2634 37.3053ZM39.3616 112.959C43.202 120.605 54.4374 129.749 69.9181 128.762C82.185 127.98 92.4913 120.159 96.0673 112.312C85.9145 108.527 75.442 106.898 64.6627 107.349C55.9164 107.715 47.4302 109.403 39.3616 112.959ZM112.912 83.3378C111.706 85.7534 110.47 88.2158 109.242 90.6697C110.836 93.1789 112.379 95.603 113.871 97.9548C115.891 98.3035 117.767 98.631 119.817 98.984C120.034 97.1085 120.243 95.335 120.46 93.4595C118.615 92.4729 116.812 91.5118 114.698 90.3805C116.104 89.9212 117.106 89.8234 118.112 90.338C119.156 90.8738 120.205 91.4054 121.232 91.9753C121.543 92.1497 121.795 92.4346 122.144 92.7323C121.876 95.2712 121.607 97.7974 121.321 100.468C118.918 101.221 116.543 101.965 114.161 102.714C114.821 103.547 114.821 103.568 115.695 103.581C117.191 103.598 118.692 103.594 120.188 103.586C120.976 103.577 121.769 103.534 122.566 103.505C124.177 100.438 125.741 97.47 127.327 94.4547C125.626 91.1503 123.951 87.8884 122.242 84.5669C119.16 84.1671 116.109 83.7631 112.912 83.3378ZM84.7467 108.412C87.9093 108.995 90.7181 109.527 93.5313 110.024C93.8765 110.084 94.2559 110.046 94.6011 109.973C100.965 108.663 107.324 107.345 113.683 106.018C113.956 105.963 114.203 105.801 114.574 105.644C111.309 102.85 108.33 99.9706 105.057 97.4657C98.1473 100.834 91.5322 104.457 84.7467 108.412ZM110.107 85.158C110.026 85.0772 109.95 84.9964 109.869 84.9114C99.7755 92.1497 89.6824 99.388 79.5935 106.635C79.4401 106.745 79.3634 106.962 79.2355 107.149C80.7188 107.587 81.9804 107.298 83.2762 106.609C90.0149 103.024 96.7877 99.5113 103.535 95.9432C104.285 95.5477 105.005 95.3393 105.905 95.637C107.384 96.9681 108.922 98.3545 110.478 99.7537C111.211 99.5538 111.846 99.3795 112.592 99.1711C112.311 98.682 112.14 98.3545 111.949 98.0441C110.7 96.058 109.485 94.0464 108.172 92.1029C107.524 91.1418 107.478 90.2869 108.023 89.2833C108.765 87.9394 109.417 86.536 110.107 85.158ZM112.409 101.523C113.739 101.055 114.949 100.626 116.433 100.102C115.418 99.8898 114.706 99.741 114.067 99.6049C113.334 100.111 112.699 100.549 112.055 100.996C112.192 101.195 112.277 101.323 112.409 101.523Z" fill="#0C0C0C"/>
<path d="M73.4277 62.2185C74.553 62.2738 75.4949 62.3205 76.6884 62.3758C80.9933 59.5307 85.4687 56.5665 90.0422 53.5427C91.7088 54.4146 93.3924 55.2949 95.076 56.1795C95.0547 56.2348 95.0376 56.2858 95.0163 56.3411C93.7589 56.2007 92.5015 56.0604 91.1461 55.9115C88.4524 58.7397 85.7415 61.5891 82.9796 64.4895C79.7487 64.2088 76.535 63.9068 73.4277 62.2185Z" fill="#0C0C0C"/>
<path d="M52.413 64.4383C49.7235 61.6059 47.0467 58.7948 44.3146 55.9199C43.0274 56.056 41.7317 56.1921 40.4359 56.3239C40.4189 56.2729 40.4018 56.2218 40.3848 56.1708C42.0258 55.3075 43.6667 54.4399 45.393 53.5341C49.8727 56.494 54.3481 59.4582 58.7596 62.3757C59.8251 62.3161 60.7756 62.2651 61.8284 62.2098C59.1474 63.7961 56.8628 64.0981 52.413 64.4383Z" fill="#0C0C0C"/>
<path d="M49.3223 74.3814C53.1669 73.6882 56.922 73.0162 60.7666 72.323C61.8961 74.8109 62.9659 77.167 64.1679 79.8122C62.919 79.3231 62.3948 78.3365 61.359 77.7879C58.482 78.4258 55.4728 79.0977 52.3485 79.7909C51.3639 78.0303 50.3836 76.2739 49.3223 74.3814Z" fill="#0C0C0C"/>
<path d="M83.1032 79.7955C79.9576 79.0937 77.0038 78.4346 74.0074 77.7626C73.2147 78.4346 72.4474 79.081 71.6504 79.7529C71.6632 78.7152 73.0612 75.3853 74.732 72.4041C78.4573 72.8761 82.1783 73.7224 86.1124 74.3646C85.0724 76.2443 84.1134 77.9795 83.1032 79.7955Z" fill="#0C0C0C"/>
</svg>
