<svg width="121" height="120" viewBox="0 0 121 120" fill="none" xmlns="http://www.w3.org/2000/svg">
<path d="M19.499 27.3353L68.016 8.65886L108.566 41.192L100.599 92.3981L52.0825 111.075L11.5325 78.5413L19.499 27.3353Z" fill="#0C0C0C" stroke="#0C0C0C"/>
<path d="M24.6191 29.4245L70.6759 11.6L109.141 42.5741L101.549 91.3727L55.492 109.197L17.0272 78.2231L24.6191 29.4245Z" fill="white" stroke="#0C0C0C"/>
<g clip-path="url(#clip0_448_242)">
<path d="M66.3873 42.0591C66.4787 42.1645 66.5571 42.2839 66.663 42.3723C67.4511 43.0291 68.2457 43.6794 69.0378 44.3315C69.097 44.3804 69.1552 44.4291 69.2487 44.507C67.1684 45.4491 65.1206 46.377 63.0727 47.3049C63.0782 47.3251 63.0837 47.3453 63.0891 47.3654C63.1853 47.3503 63.2853 47.3444 63.3789 47.3182C65.5472 46.7105 67.714 46.0993 69.8814 45.4904C70.0212 45.451 70.162 45.4193 70.318 45.3792C70.6522 45.6489 70.9799 45.9123 71.3572 46.2167C69.9109 46.6106 68.5221 46.9878 67.1343 47.3661C67.1389 47.3915 67.1438 47.4159 67.1474 47.4411C68.8407 47.2819 70.5329 47.1225 72.2668 46.9589C74.9594 49.1338 77.6728 51.327 80.4161 53.5431C80.1032 55.3674 79.7883 57.1978 79.466 59.0753C78.8682 58.7678 78.2894 58.4696 77.7106 58.1715C77.6938 58.1967 77.6768 58.2231 77.6599 58.2483C78.2256 58.7204 78.7926 59.1915 79.365 59.6689C79.3297 59.8962 79.2954 60.1161 79.2552 60.3748C78.0775 59.5061 76.923 58.655 75.7781 57.8107C75.7442 57.828 75.7285 57.832 75.7216 57.8416C75.7173 57.8485 75.7208 57.8673 75.7272 57.8747C76.8272 59.1593 77.9283 60.4441 79.0522 61.756C78.4733 65.1029 77.9054 68.4687 77.4337 71.9095C71.828 74.1386 66.1542 76.3067 60.4702 78.5129C55.579 74.6529 50.6496 70.8373 45.8254 66.9073C45.8934 66.4705 45.9545 66.0778 46.0224 65.641C48.9033 64.0146 51.8102 62.3729 54.7229 60.7289C54.6926 60.6952 54.6849 60.6822 54.674 60.6762C54.664 60.6714 54.648 60.67 54.6367 60.6736C54.6108 60.6803 54.5859 60.6883 54.5617 60.6984C51.8043 61.8775 49.048 63.0566 46.2537 64.2514C46.2749 63.7966 46.3763 63.3801 46.4339 62.9267C48.0041 62.36 49.5742 61.7944 51.1434 61.2275C51.136 61.1985 51.1285 61.1705 51.1212 61.1415C49.6285 61.3555 48.1454 61.6322 46.6135 61.8626C47.2656 57.4426 48.1032 53.0975 48.6766 48.6846C49.0274 48.5568 49.3894 48.4264 49.7495 48.2937C53.7893 46.8046 57.8311 45.3234 61.8665 43.8273C63.2277 43.3225 64.5757 42.7781 65.928 42.2472C66.0611 42.195 66.1826 42.1141 66.3094 42.0469C66.3347 42.0509 66.361 42.055 66.3873 42.0591ZM71.7258 51.7942C69.7873 52.2961 67.8544 52.7967 65.9193 53.298C65.4041 53.0001 64.8977 52.7078 64.4101 52.426C63.8366 52.5513 63.2776 52.6736 62.7063 52.7982C61.0158 51.7338 59.3264 50.6697 57.6331 49.6028C56.362 50.1034 55.0952 50.5832 53.8273 51.0982C54.3424 53.3785 54.8471 55.6142 55.3571 57.8722C56.4423 57.9359 57.505 57.9983 58.5678 58.0606C58.5681 58.0725 58.5684 58.0843 58.5677 58.096C58.2753 58.1739 57.9818 58.2527 57.6815 58.3325C57.7825 59.1109 57.8797 59.8577 57.9755 60.5999C56.7534 61.624 55.5498 62.6329 54.355 63.6345C54.4032 64.7168 54.4512 65.7734 54.4983 66.8213C58.4418 66.3599 62.3414 65.9036 66.2542 65.445C66.6336 65.8054 67.0091 66.1631 67.4053 66.5401C68.2512 66.0914 69.123 65.7046 69.9863 65.22C69.3262 64.1765 68.6877 63.1675 68.0543 62.1679C68.3837 61.4639 68.7006 60.7849 69.0221 60.0969C68.7418 59.917 68.495 59.7574 68.2481 59.5989C68.2539 59.589 68.2597 59.5792 68.2645 59.5692C69.295 59.8325 70.3242 60.0967 71.3785 60.3659C72.5548 58.3616 73.7193 56.377 74.8959 54.3706C73.8206 53.4953 72.7774 52.6486 71.7258 51.7942ZM54.7777 68.24C55.433 70.2707 57.8567 72.9541 61.7168 73.3057C64.7756 73.5842 67.6199 72.054 68.8035 70.259C66.4417 68.9369 63.9184 68.1334 61.2397 67.8304C59.0661 67.5845 56.9061 67.6743 54.7777 68.24ZM74.0727 63.7704C73.6823 64.3189 73.2828 64.8779 72.8857 65.4351C73.1831 66.1142 73.4712 66.7705 73.7495 67.407C74.2349 67.5705 74.6854 67.7232 75.1781 67.8889C75.3036 67.4353 75.4232 67.0066 75.5487 66.5531C75.1308 66.2392 74.7225 65.9332 74.2438 65.5734C74.6087 65.5143 74.8598 65.5287 75.0884 65.6941C75.3257 65.8662 75.5642 66.0374 75.796 66.2172C75.8662 66.2721 75.9174 66.3519 75.9922 66.4386C75.8287 67.0536 75.6656 67.6654 75.4927 68.3122C74.8703 68.4052 74.2556 68.4973 73.6387 68.5901C73.7699 68.8208 73.7691 68.826 73.9843 68.8627C74.353 68.9244 74.7236 68.981 75.0934 69.0364C75.2884 69.0646 75.4858 69.0845 75.6837 69.1078C76.199 68.4146 76.6989 67.7436 77.206 67.0619C76.9127 66.1828 76.6241 65.3151 76.3293 64.4315C75.5837 64.2146 74.8457 63.9979 74.0727 63.7704ZM66.1578 68.8637C66.9163 69.1287 67.5895 69.3675 68.265 69.5981C68.348 69.626 68.4431 69.6312 68.5311 69.6266C70.1525 69.5485 71.7732 69.4681 73.3942 69.3856C73.4637 69.3825 73.5309 69.3522 73.6285 69.3277C72.9294 68.5141 72.3041 67.6906 71.5919 66.948C69.7569 67.5121 67.9847 68.1503 66.1578 68.8637ZM73.3105 64.1109C73.2936 64.0879 73.2778 64.0651 73.261 64.041C70.4916 65.4359 67.7222 66.8308 64.9536 68.228C64.9114 68.2493 64.8842 68.2998 64.8454 68.341C65.1949 68.5058 65.5175 68.483 65.8638 68.3631C67.665 67.7391 69.4718 67.1341 71.2745 66.5146C71.4749 66.446 71.6607 66.4223 71.8713 66.5302C72.1855 66.9148 72.5123 67.3154 72.8428 67.7197C73.0315 67.6986 73.195 67.6801 73.3871 67.6574C73.3364 67.5262 73.3069 67.439 73.2714 67.3552C73.0392 66.8181 72.8163 66.276 72.5666 65.7469C72.4435 65.4853 72.4647 65.273 72.6378 65.0468C72.8724 64.7443 73.0872 64.4237 73.3105 64.1109ZM73.2518 68.2296C73.598 68.1655 73.9134 68.1062 74.2997 68.0343C74.0573 67.943 73.8873 67.879 73.7346 67.8209C73.5342 67.9174 73.3607 68.0009 73.1846 68.0861C73.2107 68.1406 73.2268 68.1753 73.2518 68.2296Z" fill="#0C0C0C"/>
<path d="M65.1324 57.0521C65.4081 57.109 65.6389 57.1567 65.9315 57.2162C67.1034 56.6808 68.322 56.1227 69.5671 55.5537C69.9451 55.8325 70.3271 56.1139 70.7089 56.3965C70.7015 56.4093 70.6954 56.4212 70.688 56.434C70.3829 56.3511 70.0778 56.2682 69.7489 56.1795C68.9754 56.7725 68.1969 57.3701 67.4038 57.9784C66.6169 57.7851 65.8349 57.5873 65.1324 57.0521Z" fill="#0C0C0C"/>
<path d="M59.8587 56.7919C59.3032 55.991 58.75 55.1959 58.1855 54.3829C57.8625 54.367 57.5374 54.3507 57.2124 54.3334C57.2101 54.3202 57.2079 54.307 57.2056 54.2938C57.6439 54.1442 58.0823 53.9936 58.5432 53.8368C59.5359 54.7378 60.5273 55.6398 61.5047 56.5277C61.7701 56.554 62.0067 56.5779 62.2688 56.6047C61.5461 56.8924 60.9704 56.879 59.8587 56.7919Z" fill="#0C0C0C"/>
<path d="M58.7161 59.1216C59.6919 59.0986 60.6448 59.0773 61.6206 59.0543C61.8042 59.7104 61.978 60.3317 62.1735 61.0294C61.8838 60.8609 61.7922 60.5978 61.5575 60.4229C60.8227 60.4695 60.0539 60.5194 59.256 60.5701C59.0803 60.0987 58.9056 59.6285 58.7161 59.1216Z" fill="#0C0C0C"/>
<path d="M66.8493 61.7529C66.0995 61.4593 65.3954 61.1835 64.6813 60.9029C64.4599 61.0379 64.2457 61.1677 64.0231 61.3025C64.066 61.0475 64.5388 60.2811 65.0656 59.6111C65.9673 59.8704 66.8536 60.2218 67.8003 60.531C67.4715 60.954 67.1683 61.3445 66.8493 61.7529Z" fill="#0C0C0C"/>
</g>
<defs>
<clipPath id="clip0_448_242">
<rect width="33.5129" height="37.8841" fill="white" transform="translate(49.3867 38.9089) rotate(8.84301)"/>
</clipPath>
</defs>
</svg>
