<svg width="52" height="20" viewBox="0 0 52 20" fill="none" xmlns="http://www.w3.org/2000/svg">
<path d="M2.50564 19.0482V13.7572H0.919922V12.1192H6.00742V13.7572H4.42171V19.0482H2.50564ZM6.94564 19.0482V12.1062H8.95421C9.74707 12.1062 10.2889 12.1452 10.606 12.2102C10.9099 12.2752 11.1874 12.4052 11.4121 12.5742C11.6631 12.7692 11.8614 13.0032 11.9935 13.3022C12.1256 13.6012 12.1917 13.9262 12.1917 14.2772C12.1917 14.8102 12.0596 15.2522 11.7953 15.5902C11.531 15.9282 11.1346 16.1492 10.6192 16.2662L12.5353 19.0612H10.3681L8.75599 16.3442V19.0612L6.94564 19.0482ZM8.74278 15.3952H9.09957C9.50921 15.3952 9.81314 15.3302 10.0114 15.1872C10.1964 15.0442 10.3021 14.8362 10.3021 14.5372C10.3021 14.1862 10.2096 13.9392 10.0378 13.7962C9.86599 13.6532 9.56206 13.5752 9.13921 13.5752H8.75599L8.74278 15.3952Z" fill="#4E4E4E"/>
<path d="M12.4421 19.0481L14.8735 12.1061H17.2785L19.7099 19.0481H17.8071L17.4503 17.8001H14.7149L14.3449 19.0481H12.4421ZM15.1246 16.4611H17.0406L16.3271 14.1731C16.2874 14.0561 16.261 13.9521 16.2346 13.8351L16.0892 13.2371C16.0496 13.4061 16.0099 13.5751 15.9703 13.7311C15.9306 13.8871 15.891 14.0301 15.8514 14.1731L15.1246 16.4611ZM20.3839 19.0481V12.1061H22.2339L24.9032 15.6681C24.956 15.7461 25.0353 15.8891 25.1542 16.1101C25.2732 16.3311 25.4053 16.5911 25.5374 16.8901C25.4978 16.6301 25.4714 16.3831 25.4582 16.1231C25.4449 15.9021 25.4317 15.6941 25.4317 15.5251V12.0931H27.2817V19.0351H25.4317L22.7624 15.4471C22.7096 15.3691 22.6171 15.2261 22.4981 15.0051C22.3792 14.7841 22.2471 14.5241 22.1149 14.2251C22.1546 14.5111 22.181 14.7711 22.1942 14.9921C22.2074 15.2131 22.2206 15.4211 22.2206 15.5901V19.0221H20.3839V19.0481ZM29.1053 16.8121C29.396 17.1371 29.6735 17.3711 29.951 17.5271C30.2285 17.6831 30.506 17.7611 30.7835 17.7611C31.0346 17.7611 31.246 17.6961 31.4178 17.5531C31.5896 17.4231 31.6689 17.2411 31.6689 17.0331C31.6689 16.7991 31.6028 16.6301 31.4574 16.5001C31.3121 16.3701 30.9949 16.2401 30.4796 16.1101C29.7924 15.9281 29.3035 15.6941 29.0128 15.3951C28.7221 15.0961 28.5899 14.6931 28.5899 14.1861C28.5899 13.5231 28.8146 12.9771 29.2639 12.5611C29.7132 12.1451 30.2946 11.9371 31.0214 11.9371C31.4046 11.9371 31.7746 11.9891 32.1314 12.0931C32.4749 12.1971 32.8053 12.3531 33.1224 12.5611L32.5146 13.9261C32.3164 13.7571 32.0917 13.6141 31.8407 13.5101C31.6292 13.4191 31.3914 13.3671 31.1535 13.3671C30.9289 13.3671 30.7307 13.4191 30.5853 13.5361C30.4532 13.6271 30.3607 13.7831 30.3739 13.9521C30.3739 14.1211 30.4399 14.2641 30.5589 14.3681C30.691 14.4721 30.9289 14.5761 31.2989 14.6671L31.3914 14.6931C32.171 14.9011 32.6864 15.1351 32.9374 15.3821C33.1092 15.5511 33.2281 15.7591 33.3207 15.9931C33.4132 16.2271 33.4528 16.5001 33.4528 16.7861C33.4528 17.5271 33.2017 18.1121 32.7128 18.5671C32.2239 19.0091 31.5632 19.2431 30.7439 19.2431C30.2549 19.2431 29.8057 19.1651 29.396 18.9961C28.9996 18.8271 28.6031 18.5801 28.2332 18.2291C28.2464 18.2161 29.1053 16.8121 29.1053 16.8121ZM34.5232 19.0481V12.1061H38.8442V13.6401H36.3996V14.8491H38.7121V16.3311H36.3996V19.0611L34.5232 19.0481ZM39.8882 19.0481V12.1061H44.2092V13.6401H41.7646V14.8491H44.0771V16.3311H41.7646V17.5011H44.2092V19.0611L39.8882 19.0481ZM45.491 19.0481V12.1061H47.4996C48.2924 12.1061 48.8342 12.1451 49.1514 12.2101C49.4553 12.2751 49.7328 12.4051 49.9574 12.5741C50.2085 12.7691 50.4067 13.0031 50.5389 13.3021C50.671 13.6011 50.7503 13.9261 50.7503 14.2771C50.7503 14.8101 50.6182 15.2521 50.3539 15.5901C50.0896 15.9281 49.6932 16.1491 49.1778 16.2661L51.0939 19.0611H48.9267L47.3146 16.3441V19.0611L45.491 19.0481ZM47.2882 15.3951H47.6449C48.0546 15.3951 48.3585 15.3301 48.5567 15.1871C48.7417 15.0441 48.8474 14.8361 48.8474 14.5371C48.8474 14.1861 48.7549 13.9391 48.5832 13.7961C48.4114 13.6531 48.1074 13.5751 47.6846 13.5751H47.3014V15.3951H47.2882ZM22.9607 0.835081L24.2424 5.59308C24.3085 5.81408 24.3614 6.03508 24.4142 6.26908C24.4671 6.50308 24.5199 6.76308 24.5728 7.07508C24.6389 6.72408 24.7049 6.42508 24.7446 6.19108C24.7974 5.95708 24.8371 5.76208 24.8899 5.59308L26.0924 0.835081H28.8939L26.0132 10.8581H23.4364L22.181 6.58108C22.1282 6.42508 22.0621 6.13908 21.9564 5.69708C21.9035 5.50208 21.8771 5.34608 21.8507 5.24208L21.7582 5.64508C21.6789 5.95708 21.5996 6.26908 21.5203 6.58108L20.2781 10.8581H17.6749L14.8074 0.835081H17.6089L18.7717 5.63208C18.8246 5.87908 18.8774 6.12608 18.9303 6.37308C18.9832 6.62008 19.036 6.86708 19.0757 7.12708C19.1814 6.62008 19.3003 6.12608 19.4324 5.63208L20.7142 0.835081C20.7274 0.835081 22.9607 0.835081 22.9607 0.835081ZM29.9246 10.8581V0.835081H32.726V10.8581H29.9246ZM34.9592 10.8581V0.835081H37.8664C39.0028 0.835081 39.7957 0.88708 40.2449 0.99108C40.6942 1.09508 41.0774 1.26408 41.4078 1.51108C41.7778 1.78408 42.0685 2.14808 42.2535 2.56408C42.4517 2.99308 42.5442 3.46108 42.5442 3.96808C42.5442 4.74808 42.346 5.37208 41.9628 5.86608C41.5796 6.34708 41.0114 6.67208 40.2714 6.82808L43.0464 10.8711H39.9146L37.5757 6.94508V10.8711H34.9592V10.8581ZM37.5624 5.56708H38.0778C38.6724 5.56708 39.1085 5.46308 39.386 5.26808C39.6635 5.07308 39.7957 4.74808 39.7957 4.31908C39.7957 3.81208 39.6635 3.46108 39.4124 3.25308C39.1482 3.04508 38.7253 2.94108 38.1174 2.94108H37.5624V5.56708ZM44.1035 10.8581V0.835081H50.3407V3.03208H46.8124V4.77408H50.1424V6.91908H46.8124V8.60908H50.3407V10.8581H44.1035ZM13.7106 0.75708H1.01172V2.74608H13.7106V0.75708ZM13.7106 4.61808H1.01172V6.60708H13.7106V4.61808ZM13.7106 8.81708H1.01172V10.8061H13.7106V8.81708Z" fill="#4E4E4E"/>
</svg>
